<mxfile host="app.diagrams.net" modified="2023-03-01T09:27:36.472Z" agent="5.0 (Windows NT 10.0; Win64; x64) AppleWebKit/537.36 (KHTML, like Gecko) Chrome/110.0.0.0 Safari/537.36" etag="g6VehlK4qTeR5yVT64tW" version="20.8.23" type="github">
  <diagram name="Page-1" id="saYc_3q6XpTr0yWKmfqz">
    <mxGraphModel dx="934" dy="506" grid="1" gridSize="10" guides="1" tooltips="1" connect="1" arrows="1" fold="1" page="1" pageScale="1" pageWidth="827" pageHeight="1169" math="0" shadow="0">
      <root>
        <mxCell id="0" />
        <mxCell id="1" parent="0" />
        <mxCell id="Ywz3Z_PxHFhx2dRSvDeW-1" value="Actor" style="shape=umlActor;verticalLabelPosition=bottom;verticalAlign=top;html=1;outlineConnect=0;fillColor=#f8cecc;strokeColor=#b85450;" vertex="1" parent="1">
          <mxGeometry x="20" y="200" width="50" height="90" as="geometry" />
        </mxCell>
        <mxCell id="Ywz3Z_PxHFhx2dRSvDeW-3" value="Client" style="shape=umlActor;verticalLabelPosition=bottom;verticalAlign=top;html=1;outlineConnect=0;fillColor=#d5e8d4;strokeColor=#82b366;" vertex="1" parent="1">
          <mxGeometry x="210" y="165" width="50" height="90" as="geometry" />
        </mxCell>
        <mxCell id="Ywz3Z_PxHFhx2dRSvDeW-4" value="Administrator" style="shape=umlActor;verticalLabelPosition=bottom;verticalAlign=top;html=1;outlineConnect=0;fillColor=#e1d5e7;strokeColor=#9673a6;" vertex="1" parent="1">
          <mxGeometry x="210" y="320" width="50" height="90" as="geometry" />
        </mxCell>
        <mxCell id="Ywz3Z_PxHFhx2dRSvDeW-6" value="" style="whiteSpace=wrap;html=1;aspect=fixed;" vertex="1" parent="1">
          <mxGeometry x="350" y="20" width="480" height="480" as="geometry" />
        </mxCell>
        <mxCell id="Ywz3Z_PxHFhx2dRSvDeW-7" value="Magazin online&lt;br&gt;" style="text;html=1;strokeColor=none;fillColor=none;align=center;verticalAlign=middle;whiteSpace=wrap;rounded=0;" vertex="1" parent="1">
          <mxGeometry x="560" y="30" width="60" height="30" as="geometry" />
        </mxCell>
        <mxCell id="Ywz3Z_PxHFhx2dRSvDeW-9" value="Vizitator" style="shape=umlActor;verticalLabelPosition=bottom;verticalAlign=top;html=1;outlineConnect=0;fillColor=#fff2cc;strokeColor=#d6b656;" vertex="1" parent="1">
          <mxGeometry x="212.5" y="5" width="45" height="80" as="geometry" />
        </mxCell>
        <mxCell id="Ywz3Z_PxHFhx2dRSvDeW-10" value="" style="ellipse;whiteSpace=wrap;html=1;" vertex="1" parent="1">
          <mxGeometry x="380" y="85" width="120" height="80" as="geometry" />
        </mxCell>
        <mxCell id="Ywz3Z_PxHFhx2dRSvDeW-11" value="" style="ellipse;whiteSpace=wrap;html=1;" vertex="1" parent="1">
          <mxGeometry x="380" y="230" width="120" height="80" as="geometry" />
        </mxCell>
        <mxCell id="Ywz3Z_PxHFhx2dRSvDeW-12" value="" style="ellipse;whiteSpace=wrap;html=1;" vertex="1" parent="1">
          <mxGeometry x="380" y="380" width="120" height="80" as="geometry" />
        </mxCell>
        <mxCell id="Ywz3Z_PxHFhx2dRSvDeW-13" value="" style="ellipse;whiteSpace=wrap;html=1;" vertex="1" parent="1">
          <mxGeometry x="650" y="80" width="120" height="80" as="geometry" />
        </mxCell>
        <mxCell id="Ywz3Z_PxHFhx2dRSvDeW-14" value="" style="ellipse;whiteSpace=wrap;html=1;" vertex="1" parent="1">
          <mxGeometry x="650" y="190" width="120" height="80" as="geometry" />
        </mxCell>
        <mxCell id="Ywz3Z_PxHFhx2dRSvDeW-15" value="" style="ellipse;whiteSpace=wrap;html=1;" vertex="1" parent="1">
          <mxGeometry x="650" y="300" width="120" height="80" as="geometry" />
        </mxCell>
        <mxCell id="Ywz3Z_PxHFhx2dRSvDeW-16" value="" style="ellipse;whiteSpace=wrap;html=1;" vertex="1" parent="1">
          <mxGeometry x="650" y="410" width="120" height="80" as="geometry" />
        </mxCell>
        <mxCell id="Ywz3Z_PxHFhx2dRSvDeW-22" value="" style="edgeStyle=orthogonalEdgeStyle;endArrow=classic;html=1;rounded=0;endSize=8;startSize=8;sourcePerimeterSpacing=0;targetPerimeterSpacing=0;exitX=0.5;exitY=0.5;exitDx=0;exitDy=0;exitPerimeter=0;" edge="1" parent="1" source="Ywz3Z_PxHFhx2dRSvDeW-9">
          <mxGeometry width="100" relative="1" as="geometry">
            <mxPoint x="150" y="40" as="sourcePoint" />
            <mxPoint x="45" y="200" as="targetPoint" />
            <Array as="points">
              <mxPoint x="45" y="45" />
            </Array>
          </mxGeometry>
        </mxCell>
        <mxCell id="Ywz3Z_PxHFhx2dRSvDeW-24" value="" style="edgeStyle=segmentEdgeStyle;endArrow=classic;html=1;curved=0;rounded=0;endSize=8;startSize=8;sourcePerimeterSpacing=0;targetPerimeterSpacing=0;exitX=0.5;exitY=0.5;exitDx=0;exitDy=0;exitPerimeter=0;" edge="1" parent="1" source="Ywz3Z_PxHFhx2dRSvDeW-4" target="Ywz3Z_PxHFhx2dRSvDeW-1">
          <mxGeometry width="100" relative="1" as="geometry">
            <mxPoint x="110" y="330" as="sourcePoint" />
            <mxPoint x="40" y="400" as="targetPoint" />
            <Array as="points">
              <mxPoint x="200" y="365" />
              <mxPoint x="200" y="400" />
              <mxPoint x="45" y="400" />
            </Array>
          </mxGeometry>
        </mxCell>
      </root>
    </mxGraphModel>
  </diagram>
</mxfile>
